<svg id="Layer_1" data-name="Layer 1" xmlns="http://www.w3.org/2000/svg" xmlns:xlink="http://www.w3.org/1999/xlink" viewBox="0 0 500 250"><defs><linearGradient id="linear-gradient" x1="39.33" y1="204.1" x2="85.51" y2="118.69" gradientUnits="userSpaceOnUse"><stop offset="0" stop-color="#2a2aff"/><stop offset="1" stop-color="#4ae529"/></linearGradient><linearGradient id="linear-gradient-2" x1="103.44" y1="220.5" x2="49.12" y2="73.33" xlink:href="#linear-gradient"/><linearGradient id="linear-gradient-3" x1="32.42" y1="129.77" x2="125.4" y2="129.77" xlink:href="#linear-gradient"/><linearGradient id="linear-gradient-4" x1="12.77" y1="149.69" x2="137.3" y2="134.95" gradientTransform="translate(-7.44 -8.07) rotate(-3.32)" gradientUnits="userSpaceOnUse"><stop offset="0.37" stop-color="#2a2aff"/><stop offset="0.54" stop-color="#335dc4"/><stop offset="0.86" stop-color="#43be55"/><stop offset="1" stop-color="#4ae529"/></linearGradient></defs><text transform="translate(159.71 146.93)" style="font-size:110.23334503173828px;fill:#2a2aff;font-family:Gotham-Ultra, Gotham Ultra;letter-spacing:-0.02500023358818092em">S<tspan x="70.44" y="0" style="letter-spacing:-0.010001865244881737em">A</tspan><tspan x="157.52" y="0" style="letter-spacing:-0.03499323978501582em">R</tspan><tspan x="232.48" y="0" style="letter-spacing:-0.010001865244881737em">A</tspan></text><text transform="translate(153.56 191.06)" style="font-size:33.794761657714844px;fill:#4ae529;font-family:Gotham-Book, Gotham;letter-spacing:0.1299925251950143em">TECHNO<tspan x="176.95" y="0" style="letter-spacing:0.08999927080579571em">L</tspan><tspan x="200.91" y="0" style="letter-spacing:0.13000697362506822em">OGIES</tspan></text><path d="M89,74.78v112.9c-4.52.42-9.14.75-13.85.75-2.12,0-4.22,0-6.31-.08V74.11C70.92,74,73,74,75.14,74,79.85,74,84.47,74.36,89,74.78Z" style="fill:url(#linear-gradient)"/><path d="M109.28,167a50,50,0,0,1-7.72,5.76l-16-18.5-.85-1L72.18,138.75l-.85-1L69.8,136l-33-38.22-7.37-8.53h0a60.42,60.42,0,0,1,6.19-6.1L43,91.51,71.33,123.8l.85,1,4.14,4.71,8.4,9.56.85,1Z" style="fill:url(#linear-gradient-2)"/><path d="M125.4,165.64a61.86,61.86,0,0,1-8.71,9.71,60,60,0,0,1-7.71,5.93,61.14,61.14,0,0,1-23.41,9.07l-.8.12a60.86,60.86,0,0,1-8.91.68h-.28q-2.11,0-4.2-.15a61.19,61.19,0,0,1-39-17.58l7.88-7.88a50.09,50.09,0,0,0,31.08,14.3l.8.06c1.12.07,2.25.11,3.4.11a50.59,50.59,0,0,0,9.19-.84l.8-.16a50.35,50.35,0,0,0,23.77-12L85.57,139.94l-.8-.9-8.4-9.56-4.19-4.77-.8-.91L43,91.51l-7.36-8.36A61.23,61.23,0,0,1,71.38,68.53c1.39-.09,2.79-.14,4.2-.14h.28a60.86,60.86,0,0,1,8.91.69c.27,0,.53.08.8.12a61.25,61.25,0,0,1,33.66,17.42l-7.87,7.88a50.16,50.16,0,0,0-25.79-14l-.8-.15a50.59,50.59,0,0,0-9.19-.84c-1.15,0-2.28,0-3.4.11l-.8.06a49.9,49.9,0,0,0-18,5l18,20.25.8.89L84.77,120l.52.57.28.32,32.2,36.19Z" style="fill:url(#linear-gradient-3)"/><circle cx="75.71" cy="129.67" r="61.46" style="fill:none;stroke-miterlimit:10;stroke-width:2.482039450766511px;stroke:url(#linear-gradient-4)"/></svg>