<svg id="Layer_1" data-name="Layer 1" xmlns="http://www.w3.org/2000/svg" xmlns:xlink="http://www.w3.org/1999/xlink" viewBox="0 0 500 250"><defs><linearGradient id="linear-gradient" x1="39.33" y1="204.21" x2="85.51" y2="118.8" gradientUnits="userSpaceOnUse"><stop offset="0" stop-color="#2a2aff"/><stop offset="1" stop-color="#4ae529"/></linearGradient><linearGradient id="linear-gradient-2" x1="103.44" y1="220.61" x2="49.12" y2="73.44" xlink:href="#linear-gradient"/><linearGradient id="linear-gradient-3" x1="32.42" y1="129.88" x2="125.4" y2="129.88" xlink:href="#linear-gradient"/><linearGradient id="linear-gradient-4" x1="12.77" y1="149.8" x2="137.29" y2="135.06" gradientTransform="translate(-7.44 -8.07) rotate(-3.32)" gradientUnits="userSpaceOnUse"><stop offset="0.37" stop-color="#2a2aff"/><stop offset="0.54" stop-color="#335dc4"/><stop offset="0.86" stop-color="#43be55"/><stop offset="1" stop-color="#4ae529"/></linearGradient></defs><path d="M157.73,135.24l13.78-16.42a44.26,44.26,0,0,0,27,9c4.63,0,6.61-1.21,6.61-3.31v-.22c0-2.2-2.43-3.42-10.69-5.07-17.31-3.53-32.52-8.49-32.52-24.8v-.22c0-14.66,11.46-26,32.74-26,14.88,0,25.9,3.53,34.83,10.59L216.92,96.22a40.44,40.44,0,0,0-23.14-7.6c-3.86,0-5.63,1.32-5.63,3.19V92c0,2.1,2.1,3.42,10.26,5,19.73,3.64,33,9.37,33,24.91v.23c0,16.2-13.33,26.12-34.06,26.12C181.65,148.25,167.54,143.84,157.73,135.24Z" style="fill:#2a2aff"/><path d="M261.46,69.11H287l32.52,77.71h-28l-4.08-10.36h-27l-4,10.36H228.94Zm19.62,49.05L274,99.42l-7,18.74Z" style="fill:#2a2aff"/><path d="M321.64,69.66h37.7c13.67,0,22.38,3.41,27.78,8.82,4.63,4.62,7.06,10.36,7.06,18.29V97c0,11.25-5.85,19.07-15.22,23.59l18,26.24H367.5l-14.55-22h-5.51v22h-25.8Zm36.93,36.7c6.17,0,9.92-2.75,9.92-7.49v-.22c0-5-3.86-7.39-9.81-7.39H347.44v15.1Z" style="fill:#2a2aff"/><path d="M423.5,69.11h25.57l32.52,77.71h-28l-4.08-10.36h-27l-4,10.36H391Zm19.62,49.05-7.05-18.74L429,118.16Z" style="fill:#2a2aff"/><path d="M165.83,191h-2.67V169.76h-7.94v-2.47h18.55v2.47h-7.94Z" style="fill:#4ae529"/><path d="M200.3,169.73H185.87v8.07h12.91v2.43H185.87v8.28h14.6V191H183.2V167.29h17.1Z" style="fill:#4ae529"/><path d="M228.6,188.9a11.64,11.64,0,0,1-2.14,1.3,12.19,12.19,0,0,1-2.47.85,13.29,13.29,0,0,1-2.94.3,11.57,11.57,0,0,1-8.48-3.53,11.81,11.81,0,0,1-2.49-3.87,13.28,13.28,0,0,1,0-9.56,12.32,12.32,0,0,1,2.49-3.91,11.62,11.62,0,0,1,3.78-2.63,11.89,11.89,0,0,1,4.8-1,14.54,14.54,0,0,1,2.93.27,11.91,11.91,0,0,1,2.41.76,10.7,10.7,0,0,1,2.06,1.18,17.37,17.37,0,0,1,1.83,1.54l-1.83,2a14.46,14.46,0,0,0-3.26-2.33,8.85,8.85,0,0,0-4.17-.92,8.88,8.88,0,0,0-6.54,2.81,9.62,9.62,0,0,0-1.93,3.09,10.48,10.48,0,0,0-.69,3.84,10.65,10.65,0,0,0,.69,3.85,9.6,9.6,0,0,0,1.93,3.11,9.06,9.06,0,0,0,2.91,2.08,8.74,8.74,0,0,0,3.63.76,9.09,9.09,0,0,0,4.19-.9,14.85,14.85,0,0,0,3.45-2.52l1.75,1.73A15.93,15.93,0,0,1,228.6,188.9Z" style="fill:#4ae529"/><path d="M242.24,180.3V191h-2.67V167.29h2.67V177.8h13.65V167.29h2.67V191h-2.67V180.3Z" style="fill:#4ae529"/><path d="M287.05,167.29h2.6V191h-2.13l-15.27-19.4V191h-2.6V167.29h2.5l14.9,19Z" style="fill:#4ae529"/><path d="M322.94,183.77a12.2,12.2,0,0,1-2.47,3.9,11.74,11.74,0,0,1-3.81,2.69,12.07,12.07,0,0,1-4.94,1,11.94,11.94,0,0,1-4.92-1,11.65,11.65,0,0,1-3.8-2.65,11.79,11.79,0,0,1-2.45-3.89,12.83,12.83,0,0,1-.86-4.68,12.52,12.52,0,0,1,.88-4.68,12.38,12.38,0,0,1,2.47-3.9,11.78,11.78,0,0,1,3.82-2.69,12.81,12.81,0,0,1,9.85,0,11.65,11.65,0,0,1,3.8,2.65A11.85,11.85,0,0,1,323,174.4a12.93,12.93,0,0,1,.86,4.69A12.52,12.52,0,0,1,322.94,183.77Zm-2.58-8.44a9.33,9.33,0,0,0-1.95-3.1,9.44,9.44,0,0,0-3-2.1,8.92,8.92,0,0,0-3.74-.78,9.14,9.14,0,0,0-3.73.76,8.93,8.93,0,0,0-2.93,2.08,9.72,9.72,0,0,0-1.9,3.09,10.72,10.72,0,0,0,0,7.62A9.1,9.1,0,0,0,305.1,186a9.37,9.37,0,0,0,3,2.1,8.84,8.84,0,0,0,3.73.78,9.14,9.14,0,0,0,3.73-.76,8.83,8.83,0,0,0,2.93-2.08,9.92,9.92,0,0,0,1.91-3.09,10.44,10.44,0,0,0,.69-3.81A10.57,10.57,0,0,0,320.36,175.33Z" style="fill:#4ae529"/><path d="M333.86,167.29h2.67v21.19h13.31V191h-16Z" style="fill:#4ae529"/><path d="M380,183.77a12.38,12.38,0,0,1-2.47,3.9,11.78,11.78,0,0,1-3.82,2.69,12.81,12.81,0,0,1-9.85,0,11.65,11.65,0,0,1-3.8-2.65,11.79,11.79,0,0,1-2.45-3.89,12.83,12.83,0,0,1-.86-4.68,12.52,12.52,0,0,1,.88-4.68,12.2,12.2,0,0,1,2.47-3.9,11.74,11.74,0,0,1,3.81-2.69,12.07,12.07,0,0,1,4.94-1,11.94,11.94,0,0,1,4.92,1,11.65,11.65,0,0,1,3.8,2.65A11.85,11.85,0,0,1,380,174.4a12.93,12.93,0,0,1,.86,4.69A12.52,12.52,0,0,1,380,183.77Zm-2.59-8.44a9.15,9.15,0,0,0-1.94-3.1,9.44,9.44,0,0,0-2.95-2.1,8.92,8.92,0,0,0-3.74-.78,9.14,9.14,0,0,0-3.73.76,8.83,8.83,0,0,0-2.93,2.08,9.92,9.92,0,0,0-1.91,3.09,10.86,10.86,0,0,0,0,7.62,9.28,9.28,0,0,0,1.95,3.11,9.44,9.44,0,0,0,2.95,2.1,8.92,8.92,0,0,0,3.74.78,9.18,9.18,0,0,0,3.73-.76,8.93,8.93,0,0,0,2.93-2.08,9.72,9.72,0,0,0,1.9-3.09,10.24,10.24,0,0,0,.7-3.81A10.36,10.36,0,0,0,377.43,175.33Z" style="fill:#4ae529"/><path d="M407.34,190.29a13.31,13.31,0,0,1-5.42,1.06,12.69,12.69,0,0,1-5-.94,11.14,11.14,0,0,1-3.78-2.6,11.26,11.26,0,0,1-2.4-3.89,13.44,13.44,0,0,1-.83-4.77,12.92,12.92,0,0,1,.86-4.66,12.12,12.12,0,0,1,2.42-3.92,11.36,11.36,0,0,1,8.58-3.68,16.3,16.3,0,0,1,2.72.2,11.57,11.57,0,0,1,2.3.61,11.19,11.19,0,0,1,2,1,17.23,17.23,0,0,1,1.81,1.34l-1.72,2a11.26,11.26,0,0,0-1.42-1.1,9.47,9.47,0,0,0-1.61-.85,10,10,0,0,0-1.89-.55,11.49,11.49,0,0,0-2.28-.21,8.4,8.4,0,0,0-3.62.78,8.87,8.87,0,0,0-2.84,2.1,9.93,9.93,0,0,0-1.86,3.1,10.5,10.5,0,0,0-.67,3.77,11.49,11.49,0,0,0,.66,4,9.29,9.29,0,0,0,1.87,3.13,8.44,8.44,0,0,0,2.94,2.06A9.67,9.67,0,0,0,402,189a10.36,10.36,0,0,0,3.82-.7,11,11,0,0,0,3-1.68v-5.9h-7.2v-2.37h9.76v9.41A15.44,15.44,0,0,1,407.34,190.29Z" style="fill:#4ae529"/><path d="M424.73,167.29V191h-2.67V167.29Z" style="fill:#4ae529"/><path d="M453.15,169.73H438.72v8.07h12.91v2.43H438.72v8.28h14.6V191H436.05V167.29h17.1Z" style="fill:#4ae529"/><path d="M465.42,174.7a3.11,3.11,0,0,0,1,1.24,7.11,7.11,0,0,0,2,1,22.4,22.4,0,0,0,3.21.86,13.93,13.93,0,0,1,5.83,2.44,5.28,5.28,0,0,1,1.87,4.3,6.25,6.25,0,0,1-2.25,4.91,7.52,7.52,0,0,1-2.54,1.35,10.59,10.59,0,0,1-3.25.48,14.22,14.22,0,0,1-5.19-.92,14.7,14.7,0,0,1-4.47-2.84l1.65-2a13.87,13.87,0,0,0,3.75,2.52,10.87,10.87,0,0,0,4.36.83,6.07,6.07,0,0,0,3.84-1.12,3.53,3.53,0,0,0,1.44-2.94,4,4,0,0,0-.28-1.51,3,3,0,0,0-.94-1.2,6.81,6.81,0,0,0-1.88-1,25,25,0,0,0-3.07-.85,24.31,24.31,0,0,1-3.54-1,8.87,8.87,0,0,1-2.49-1.39A5,5,0,0,1,463,176a6.48,6.48,0,0,1-.47-2.57,5.9,5.9,0,0,1,.57-2.6,6.09,6.09,0,0,1,1.63-2,7.81,7.81,0,0,1,2.46-1.36,9.66,9.66,0,0,1,3.11-.49,13.09,13.09,0,0,1,4.55.72,14,14,0,0,1,3.77,2.16L477,171.89a11.34,11.34,0,0,0-3.33-2,10,10,0,0,0-3.5-.61,6.67,6.67,0,0,0-2.07.3,5.41,5.41,0,0,0-1.59.82,3.35,3.35,0,0,0-1.37,2.74A4.07,4.07,0,0,0,465.42,174.7Z" style="fill:#4ae529"/><path d="M89,74.89v112.9c-4.52.42-9.14.75-13.85.75-2.12,0-4.22,0-6.31-.08V74.22c2.09-.09,4.19-.09,6.31-.09C79.85,74.13,84.47,74.47,89,74.89Z" style="fill:url(#linear-gradient)"/><path d="M109.28,167.1a50,50,0,0,1-7.72,5.76l-16-18.5-.85-1L72.18,138.86l-.85-1-1.53-1.76-33-38.22-7.37-8.52h0a60.42,60.42,0,0,1,6.19-6.1L43,91.62l28.38,32.29.85,1,4.14,4.71,8.4,9.56.85,1Z" style="fill:url(#linear-gradient-2)"/><path d="M125.4,165.75a61.86,61.86,0,0,1-8.71,9.71,60,60,0,0,1-7.71,5.93,61.14,61.14,0,0,1-23.41,9.07l-.8.12a62.27,62.27,0,0,1-8.91.69h-.28c-1.41,0-2.81-.05-4.2-.14a61.25,61.25,0,0,1-39-17.59l7.88-7.88A50.09,50.09,0,0,0,71.38,180l.8.06c1.12.07,2.25.11,3.4.11a50.59,50.59,0,0,0,9.19-.84l.8-.15a50.46,50.46,0,0,0,23.77-12l-23.77-27-.8-.9-8.4-9.56-4.19-4.77-.8-.91L43,91.62l-7.36-8.36A61.23,61.23,0,0,1,71.38,68.64c1.39-.09,2.79-.14,4.2-.14h.28a60.86,60.86,0,0,1,8.91.69l.8.12a61.25,61.25,0,0,1,33.66,17.42l-7.87,7.88a50.16,50.16,0,0,0-25.79-14l-.8-.15a50.59,50.59,0,0,0-9.19-.84c-1.15,0-2.28,0-3.4.11l-.8.06a49.9,49.9,0,0,0-18,5l18,20.25.8.89L84.77,120.1l.52.57.28.32,32.2,36.19Z" style="fill:url(#linear-gradient-3)"/><circle cx="75.71" cy="129.78" r="61.46" style="fill:none;stroke-miterlimit:10;stroke-width:2.48203945076651px;stroke:url(#linear-gradient-4)"/></svg>